<svg version="1.2" xmlns="http://www.w3.org/2000/svg" viewBox="0 0 595 842" width="595" height="842">
	<style>
		.s0 { opacity: .99;fill: #fc3413 } 
		.s1 { opacity: .99;fill: #f6d961 } 
		.s2 { fill: #4f3003 } 
		.s3 { fill: #b16a01 } 
	</style>
	<g id="Layer 1">
		<g id="icon-512">
			<path id="Path 0" fill-rule="evenodd" class="s0" d="m251.31 494.93c0.53 0.18 0.69 0.73 0.38 1.25q-0.56 0.93 0.37 0.37c0.52-0.3 1.78-0.38 2.81-0.18 1.04 0.21 1.71 0.72 1.5 1.13-0.21 0.43 0.27 0.59 1.13 0.37 0.82-0.2 1.5-0.54 1.5-0.75 0-0.2-1.18-0.88-2.63-1.5-1.44-0.61-3.38-1.09-4.31-1.06-0.93 0.03-1.26 0.2-0.75 0.37zm14.98 4.65c0.74 0.52 2.26 0.94 3.4 0.93 1.13 0 2.06-0.35 2.06-0.76 0-0.45-0.96-0.54-2.44-0.22-1.81 0.39-2.29 0.3-1.87-0.38q0.57-0.91-0.96-0.71c-1.43 0.17-1.44 0.24-0.19 1.14z"/>
			<path id="Path 1" fill-rule="evenodd" class="s1" d="m312 251.99c-0.07 0.06-1.31 0.31-2.75 0.55-1.44 0.24-3.64 0.64-4.88 0.88-1.23 0.23-4.95 1.69-8.25 3.23-3.3 1.54-8.19 4.34-10.87 6.24-2.68 1.89-6.9 5.6-9.38 8.24-2.47 2.64-5.17 6.06-6 7.59-0.82 1.54-1.75 2.79-2.06 2.79-0.31-0.01-1.57-0.52-2.81-1.14-1.24-0.61-4.53-1.48-7.31-1.92-2.79-0.43-7.26-0.82-9.94-0.85-2.68-0.03-6.39 0.19-8.25 0.51-1.86 0.31-5.4 1.29-7.88 2.18-2.47 0.88-7.16 3.12-10.42 4.97-3.26 1.85-8.46 5.73-11.55 8.61-3.09 2.89-7.02 7.28-8.75 9.75-1.72 2.48-4.03 6.53-5.13 9-1.09 2.48-2.32 6.53-2.72 9-0.4 2.48-0.59 4.67-0.41 4.88 0.17 0.21-1.56 1.73-3.86 3.37-2.29 1.65-4.58 3.68-5.09 4.5-0.51 0.83-1.51 3.02-2.22 4.88-0.96 2.49-1.18 4.46-0.82 7.5 0.26 2.27 1.08 4.97 1.83 6 1.33 1.85 1.35 1.77 1.03-5.25-0.3-6.7-0.19-7.35 1.77-10.88 1.75-3.13 2.86-4.11 6.77-6 4.42-2.12 4.68-2.39 4.68-4.87 0-1.44 0.55-4.48 1.22-6.75 0.67-2.27 2.19-6.07 3.38-8.44 1.2-2.37 4.45-6.72 7.23-9.66 2.79-2.94 7.09-6.8 9.56-8.57 2.48-1.78 7.04-4.4 10.13-5.84 3.09-1.43 8.24-3.14 11.44-3.8 3.19-0.65 7.41-1.18 9.37-1.18 1.96 0.01 5.93 0.52 8.81 1.14 2.89 0.62 7.03 1.97 9.19 2.99 3.18 1.5 3.94 1.64 3.94 0.73 0-0.61 1.64-3.57 3.65-6.56 2.01-2.99 5.81-7.39 8.44-9.78 2.89-2.62 7.6-5.76 11.91-7.95 4.19-2.13 9.59-4.16 13.13-4.95 4.31-0.96 7.68-1.22 11.99-0.93 3.3 0.23 8.37 1.16 11.25 2.06 2.89 0.9 7.11 2.76 9.38 4.13 2.27 1.37 5.9 4.2 8.06 6.3 3.8 3.68 4.03 3.78 6.38 2.95 1.34-0.47 4.31-0.72 6.61-0.56 2.97 0.21 5.21 0.94 7.79 2.54 2.38 1.48 4.37 3.54 5.79 6 1.85 3.21 2.17 4.57 2.19 9.38 0.02 3.66 0.26 5.23 0.7 4.5 0.37-0.62 0.89-2.81 1.16-4.88 0.37-2.91 0.13-4.58-1.09-7.5-0.87-2.06-2.67-4.79-4.02-6.06-1.34-1.27-3.71-3.04-5.26-3.94-1.54-0.89-4.08-1.85-5.62-2.12-1.55-0.28-4.17-0.49-5.82-0.47-2.56 0.02-3.7-0.57-7.87-4.1-2.68-2.27-7.07-5.23-9.75-6.57-2.68-1.34-6.73-3.01-9-3.7-2.27-0.69-5.14-1.41-6.38-1.61-1.23-0.19-4.55-0.43-7.37-0.51-2.82-0.09-5.18-0.11-5.25-0.05zm27.9 68.13c-0.27 0.42-0.27 2.53 0 4.7 0.26 2.17 0.64 3.94 0.85 3.94 0.21-0.01 4.42 0.53 9.38 1.19 4.95 0.67 9.67 1.3 10.49 1.4 0.83 0.11 2.52 0.44 3.75 0.73 1.24 0.3 3.1 0.84 4.13 1.21 1.03 0.37 2.72 0.8 3.75 0.96 1.03 0.16 4.58 1.54 7.87 3.07 3.3 1.53 7.11 3.85 8.46 5.17 2.27 2.21 2.45 2.74 2.44 7.26 0 2.68-1.7 16.01-3.77 29.62-2.89 19.03-4.12 25.36-5.33 27.38l-1.57 2.62c3.62-3.45 3.94-3.54 3.92-2.43-0.01 0.72 0.23 1.18 0.54 1.03 0.31-0.16 1.16-2.1 1.89-4.31 0.73-2.22 1.49-5.22 1.69-6.66 0.2-1.44 0.69-2.96 1.08-3.38 0.39-0.41 0.54-1.42 0.34-2.25-0.2-0.82 0.49-6.22 1.53-12 1.05-5.77 2.04-11.34 2.22-12.37 0.17-1.03 0.54-4.07 0.82-6.75 0.28-2.68 0.81-5.63 1.19-6.56 0.37-0.93 0.68-2.62 0.68-3.75-0.01-1.14-0.34-3.33-0.75-4.88-0.41-1.54-1.85-4.03-3.19-5.52-1.4-1.56-4.99-3.95-8.44-5.61-3.29-1.59-7.18-3.11-8.62-3.39-1.44-0.27-2.96-0.78-3.38-1.12-0.41-0.34-3.61-0.99-7.12-1.45-3.51-0.46-6.63-0.98-6.94-1.15-0.31-0.18-3.51-0.52-7.12-0.76-3.61-0.24-6.82-0.58-7.13-0.75-0.31-0.17-0.6-1.24-0.65-2.37l-0.09-2.07c-0.91 3.8-1.23 4.15-1.54 3.38-0.25-0.62-0.56-1.97-0.68-3-0.13-1.03-0.44-1.54-0.7-1.13zm-116.13 33.57c-0.01 0.81-1.24 1.86-3.21 2.74-1.75 0.79-5.04 3.06-7.31 5.05-2.27 1.99-4.8 4.34-5.63 5.22-0.82 0.88-2.09 2.32-2.81 3.2-0.72 0.88-1.31 1.94-1.31 2.35 0 0.41-0.26 0.83-0.58 0.94-0.32 0.1-1.68 1.87-3.02 3.93-1.34 2.07-2.43 4.26-2.42 4.88 0.01 0.62-0.49 2.05-1.11 3.19-0.62 1.13-0.95 2.4-0.75 2.81 0.21 0.41 0.04 0.92-0.37 1.12-0.41 0.21-0.58 1.22-0.38 2.25 0.23 1.12 0.07 1.73-0.37 1.5-0.44-0.21-0.77 0.96-0.8 2.82-0.03 1.75-0.05 5.72-0.03 8.81 0.01 3.09 0.03 6.89 0.05 8.44 0.02 1.54 0.37 2.98 0.78 3.18 0.41 0.21 0.74 0.97 0.74 1.69-0.01 0.72 0.78 3.85 1.74 6.94 0.97 3.09 2.75 7.37 3.95 9.51 1.21 2.13 2.53 3.66 2.94 3.38q0.73-0.47 0.08 0.62c-0.47 0.78-0.25 1.4 0.75 2.07 0.78 0.52 1.17 0.94 0.86 0.93-0.31 0 0.52 1.26 1.84 2.8 1.32 1.55 2.67 2.73 3 2.63 0.33-0.11 0.44 0.06 0.24 0.37-0.2 0.31 0.22 1.1 0.94 1.76 0.71 0.66 1.72 1.42 2.23 1.69 0.66 0.35 0.77 0.11 0.38-0.8-0.45-1.03-0.3-1.19 0.75-0.75 0.73 0.3 1.31 0.21 1.31-0.21 0-0.41-1.1-1.7-2.44-2.85-1.34-1.16-3.5-3.6-4.8-5.44-1.29-1.83-3.71-6.04-5.37-9.34-1.66-3.29-3.2-6.84-3.43-7.87-0.23-1.03-0.73-3.23-1.11-4.88-0.39-1.64-0.95-5.53-1.25-8.62-0.29-3.09-0.28-6.13 0.05-6.75 0.32-0.62 0.61-3.4 0.65-6.19 0.04-2.78 0.33-5.06 0.64-5.06 0.31 0 0.81-1.56 1.12-3.46 0.31-1.91 0.82-3.6 1.13-3.75 0.31-0.16 0.55-0.88 0.54-1.6-0.02-0.72 0.41-2.16 0.94-3.19 0.52-1.03 2.2-3.73 3.71-6 1.51-2.27 4.21-5.78 6-7.8 1.78-2.03 5.27-5.21 7.74-7.07 2.48-1.87 4.59-3.5 4.69-3.64 0.11-0.13-0.14-0.83-0.54-1.55-0.69-1.25-0.73-1.25-0.75 0zm95.23 54.63c2.27 0.81 4.8 1.58 5.62 1.71 0.83 0.13 2.01 0.52 2.63 0.86 0.62 0.34 1.63 0.67 2.25 0.73 0.62 0.06 2.14 0.36 3.37 0.68 1.24 0.31 2.93 0.85 3.75 1.19 0.83 0.34 4.37 1.58 7.88 2.74 3.51 1.17 10.26 4.06 15 6.44 4.74 2.38 11.49 6.47 15 9.1 3.51 2.64 8.57 7.11 11.25 9.95 2.68 2.83 6.46 7.52 8.38 10.4 1.93 2.89 4.52 7.62 5.76 10.5 1.23 2.89 2.98 8.8 3.88 13.13 1.35 6.49 1.56 9.32 1.19 16.12-0.24 4.54-0.99 10.45-1.67 13.13-0.67 2.68-1.28 5.38-1.35 6-0.07 0.62-0.37 1.55-0.66 2.06-0.29 0.52-0.28 0.95 0.03 0.95 0.31 0.01 0.23 0.26-0.19 0.56-0.41 0.31-2.01 3.09-3.56 6.18-1.54 3.09-2.29 4.95-1.66 4.12 0.64-0.82 2.07-2.57 3.19-3.89 1.12-1.32 2.29-2.24 2.6-2.06 0.31 0.18 1.12-0.77 1.79-2.11 0.68-1.34 1.82-4.29 2.54-6.56 0.72-2.27 1.54-5.14 1.83-6.38 0.3-1.23 0.8-6.8 1.13-12.37 0.43-7.34 0.33-11.67-0.38-15.75-0.54-3.09-1.55-7.31-2.25-9.38-0.7-2.06-2.13-5.43-3.18-7.5-1.05-2.06-3.37-6.02-5.16-8.81-1.79-2.78-3.6-5.06-4.01-5.06-0.41 0-0.74-0.42-0.73-0.94 0.01-0.51-2.61-3.48-5.81-6.59-3.21-3.11-7.19-6.69-8.84-7.96-1.64-1.27-6.2-3.99-10.12-6.06-3.92-2.07-10.67-5.13-15-6.8-4.33-1.68-11.59-4.12-16.13-5.43-4.53-1.31-8.84-2.18-9.56-1.93q-1.33 0.48-0.75-0.43c0.4-0.63 0.08-0.74-1.12-0.37-0.97 0.29-1.69 0.19-1.69-0.24 0-0.41-0.92-0.63-2.03-0.48-1.12 0.16-2.14-0.01-2.25-0.37-0.12-0.36-1.32-0.63-2.66-0.6-2.22 0.05-2.07 0.19 1.69 1.52zm-118.88 65.9c-0.82 0.31-1.92 0.43-2.45 0.26-0.52-0.17-2.11 0.46-3.53 1.41-1.42 0.96-2.34 2-2.05 2.32 0.29 0.32 0.11 0.57-0.4 0.56-0.52-0.01-1.18 0.74-1.47 1.67-0.28 0.93-0.57 1.85-0.62 2.06-0.06 0.21-0.37 1.05-0.7 1.87-0.32 0.83-0.38 2.1-0.12 2.82 0.26 0.72 0.13 1.31-0.28 1.31-0.41 0-0.68 1.43-0.6 3.19 0.08 1.75-0.09 3.61-0.38 4.12-0.28 0.52-0.54 3.56-0.57 6.75-0.02 3.2-0.35 7-0.71 8.44-0.37 1.44-0.86 6.51-1.09 11.25-0.22 4.74-0.6 10.82-0.84 13.5-0.23 2.68-0.23 6.14 0.01 7.69 0.24 1.54 0.77 2.81 1.18 2.81 0.41 0 0.75-0.76 0.75-1.69 0.01-1.57 0.12-1.53 1.58 0.56 0.87 1.24 1.33 1.58 1.03 0.75-0.31-0.82-0.72-2.34-0.93-3.37-0.21-1.03 0-5.42 0.47-9.75 0.46-4.33 1.03-10.24 1.26-13.13 0.23-2.88 0.54-6.26 0.7-7.5 0.15-1.23 0.48-4.61 0.72-7.5 0.24-2.88 0.63-7.27 0.85-9.75 0.23-2.47 0.77-6.35 1.2-8.62 0.62-3.21 1.31-4.54 3.14-5.99 1.31-1.03 3.53-1.93 4.98-2.02 1.44-0.1 3.06 0.24 3.6 0.73 0.53 0.5 0.95 0.65 0.93 0.34-0.01-0.31 1.15 0.11 2.59 0.94 1.45 0.83 2.8 1.5 3 1.5 0.21 0 0.39-0.93 0.4-2.06 0.02-1.69-0.56-2.36-3.18-3.69-1.77-0.9-4.06-1.79-5.09-1.99-1.03-0.2-2.55-0.11-3.38 0.21zm15.25 5.51c2.61 1.33 3.2 1.98 3 3.38-0.15 1.08 0.26 2.01 1.07 2.44 0.72 0.39 1.29 0.45 1.28 0.14-0.02-0.31 0.4-0.15 0.93 0.36 0.54 0.51 1.99 1.12 3.22 1.36 1.24 0.25 2.73 0.85 3.32 1.33 0.58 0.49 1.42 0.94 1.87 1 0.45 0.06 1.45 0.4 2.22 0.75 1.06 0.48 1.33 0.36 1.12-0.49-0.15-0.62-0.61-1.36-1.03-1.65-0.41-0.28-0.49-0.7-0.18-0.93 0.31-0.23 0.98 0 1.5 0.52 0.51 0.51 1.36 0.93 1.87 0.93 0.52 0 1.45 0.09 2.06 0.19 0.62 0.11 1.13 0.53 1.13 0.94 0 0.41-0.76 0.6-1.69 0.41-1.09-0.22-1.69 0.02-1.69 0.69 0 0.56 0.17 0.89 0.38 0.72 0.21-0.17 0.86 0.11 1.46 0.62 0.89 0.77 0.96 0.73 0.43-0.19-0.37-0.65 0.07-0.49 1.06 0.37 0.94 0.83 1.84 1.42 2 1.32 0.17-0.11 0.47-0.19 0.67-0.19 0.21 0 0.72 0.17 1.13 0.37 0.41 0.21 0.83 0.41 0.94 0.44 0.1 0.04 0.86 0.17 1.68 0.3 0.83 0.14 2.6 0.61 3.94 1.07 1.34 0.45 2.42 0.57 2.41 0.26-0.02-0.31 0.5-0.06 1.15 0.56 0.66 0.62 1.18 0.87 1.16 0.56-0.01-0.31 1.24-0.1 2.78 0.47 1.55 0.56 4.17 1.22 5.81 1.45q3.01 0.41 4.5-0.67c1.33-0.96 1.35-1.08 0.19-1.07-0.72 0-1.45 0.43-1.63 0.95-0.17 0.51-0.34 0.34-0.37-0.38-0.03-0.72-0.4-1.31-0.81-1.31-0.41 0-0.58-0.34-0.38-0.75 0.21-0.41 0.04-0.75-0.37-0.75-0.41 0-0.83 0.39-0.94 0.86-0.12 0.56-0.65 0.42-1.5-0.37-0.76-0.72-1.47-0.93-1.69-0.49-0.23 0.47-0.8 0.4-1.53-0.19-0.93-0.75-1.15-0.75-1.12 0 0.01 0.52 0.62 1.11 1.34 1.32 0.72 0.21 1.15 0.58 0.94 0.81-0.21 0.23-2.23-0.14-4.5-0.84-3.05-0.93-3.83-1.43-3-1.92 0.62-0.36 0.87-0.66 0.56-0.67-0.31 0-0.81-0.1-1.12-0.21-0.31-0.11-1.07-0.53-1.68-0.94q-1.11-0.73-0.64 0.01c0.27 0.42 0.01 0.75-0.57 0.75-0.58 0-1.05-0.25-1.05-0.56 0-0.31 0.59-0.89 1.31-1.29 0.72-0.4 0.92-0.73 0.43-0.75-0.49-0.01-1.41 0.49-2.06 1.1-1.05 1-1.18 1-1.18 0 0-0.61 0.42-1.28 0.94-1.47 0.51-0.19 0.01-0.19-1.13 0-1.39 0.24-2.18-0.01-2.44-0.78-0.26-0.78-0.87-0.96-2.06-0.59-1.22 0.39-1.53 0.29-1.12-0.37 0.39-0.63 0.16-0.76-0.75-0.42-0.81 0.3-1.68 0.01-2.25-0.75-0.53-0.7-1.1-0.91-1.32-0.49-0.22 0.45-0.96 0.31-1.87-0.38-0.83-0.61-1.84-0.95-2.25-0.75-0.41 0.21-0.75 0.04-0.75-0.37 0-0.41-0.51-0.75-1.13-0.75-0.61 0-1.12-0.34-1.12-0.75 0-0.41-0.68-1.09-1.5-1.5q-1.5-0.75-1.13 0c0.21 0.41 0.04 0.92-0.37 1.12-0.41 0.21-0.75 0.04-0.75-0.37 0-0.41-0.34-0.58-0.75-0.38-0.41 0.21-1.09-0.13-1.5-0.75-0.41-0.61-1.09-0.95-1.5-0.75-0.41 0.21-0.75 0.04-0.75-0.37 0-0.41-0.25-0.7-0.56-0.63-0.31 0.06-1.83-0.45-3.38-1.13-1.54-0.68-3.06-1.22-3.37-1.19-0.31 0.02 0.89 0.78 2.68 1.68zm56.38 20.21c0 0.51 0.42 1 0.94 1.08 0.51 0.08 2.12 0.32 3.56 0.54 1.44 0.22 2.2 0.24 1.69 0.04-0.52-0.19-0.69-0.75-0.38-1.25 0.42-0.66 0.02-0.76-1.5-0.38-1.29 0.33-1.92 0.25-1.69-0.22 0.21-0.41-0.3-0.75-1.12-0.75-0.83 0-1.5 0.42-1.5 0.94zm-32.99 65.25c0 0.51 0.84 1.36 1.87 1.87 1.38 0.69 1.92 0.71 2.06 0.08 0.12-0.56 0.65-0.42 1.5 0.37 0.72 0.68 1.98 1.24 2.81 1.24 0.82 0 1.58-0.35 1.69-0.77 0.11-0.47 1.18-0.55 2.81-0.21l2.62 0.56c-4.34 0.9-3.96 0.94-1.5 0.66 2.07-0.23 6.2-0.39 9.19-0.33 3.19 0.05 5.44-0.22 5.44-0.66 0-0.41-1.94-0.81-4.31-0.89-2.37-0.08-5.5-0.27-6.94-0.43-1.44-0.16-4.31-0.26-6.38-0.23-2.89 0.05-3.49-0.12-2.62-0.75 0.86-0.63 0.46-0.72-1.69-0.39-1.76 0.28-2.67 0.16-2.44-0.31 0.21-0.42-0.62-0.75-1.87-0.75-1.3 0-2.25 0.39-2.24 0.94z"/>
			<path id="Path 2" fill-rule="evenodd" class="s2" d="m309.63 257.1c-2.89 0.53-7.45 1.87-10.13 2.97-2.68 1.11-7.07 3.47-9.75 5.26-2.68 1.78-7.18 5.73-10 8.77-2.81 3.04-6.02 7.32-7.12 9.51-1.1 2.19-2.34 3.81-2.75 3.6-0.42-0.21-2.95-1.31-5.63-2.44-4.07-1.73-6.24-2.12-13.12-2.38-6.04-0.22-9.56 0.03-13.13 0.93-2.68 0.68-7.07 2.26-9.75 3.51-2.68 1.26-6.9 3.74-9.37 5.52-2.48 1.78-6.92 5.72-9.87 8.76-3.74 3.84-6.19 7.22-8.09 11.14-2.01 4.14-2.87 7.08-3.26 11.13l-0.53 5.51c-4.66 1.61-6.85 2.7-7.88 3.47-1.03 0.77-2.71 2.89-3.73 4.71-1.36 2.42-1.85 4.41-1.84 7.43 0.01 2.27 0.5 5.48 1.08 7.12 0.57 1.65 1.91 3.99 2.96 5.2 1.05 1.2 3.59 2.99 5.66 3.98 3.43 1.64 3.52 1.75 1.12 1.32-1.44-0.27-3.22-0.63-3.94-0.8-0.72-0.18-1.31-0.15-1.31 0.05 0 0.21 1.43 0.76 3.19 1.23 1.75 0.46 4.7 0.79 6.56 0.73 1.86-0.07 4.73-0.52 6.38-1.02 1.69-0.51 4.3-2.24 6-3.96 1.64-1.68 3.63-4.73 4.41-6.77 0.78-2.04 1.71-4.04 2.07-4.46 0.35-0.41 0.48-1.34 0.27-2.06-0.21-0.72-0.72-1.31-1.13-1.31-0.41 0-1.14-1.27-1.61-2.81-0.48-1.55-1.96-4.17-3.29-5.82-2.04-2.52-2.31-3.29-1.72-4.87 0.4-1.03 1.29-2.48 1.98-3.21 0.84-0.89 2.34-1.33 4.45-1.31 1.76 0.01 4.44 0.61 5.97 1.33 1.52 0.72 3.89 2.41 5.25 3.75 1.36 1.34 2.47 2.78 2.47 3.19 0 0.43-2.62 0.79-6.19 0.84-3.4 0.04-5.59 0.21-4.87 0.37 0.72 0.16 1.16 0.54 0.98 0.85-0.18 0.31 1.01 4.78 2.63 9.94 1.62 5.16 2.95 9.46 2.95 9.56 0 0.11-1.1 0.8-2.44 1.55-1.34 0.75-4.76 3.53-7.6 6.19-2.84 2.65-6.53 6.85-8.2 9.32-1.67 2.48-3.31 4.59-3.65 4.69-0.33 0.11-0.44 0.53-0.23 0.94 0.2 0.41-0.05 1.18-0.57 1.71-0.51 0.52-1.05 1.45-1.2 2.06-0.15 0.61-0.31 1.86-0.37 2.79-0.07 0.93-0.37 1.69-0.68 1.69-0.31 0-0.39 0.51-0.18 1.12 0.2 0.62 0.03 1.13-0.38 1.13-0.41 0-0.58 0.51-0.37 1.12 0.2 0.62 0.03 1.3-0.38 1.5-0.41 0.21-0.58 1.39-0.37 2.63 0.2 1.24 0.12 2.39-0.19 2.56-0.31 0.16-0.52 4.47-0.46 9.56 0.07 5.51 0.6 11.3 1.32 14.32 0.66 2.78 2.55 7.76 4.2 11.06 1.65 3.3 3.17 6 3.38 6 0.2 0 0.12-0.42-0.18-0.94q-0.56-0.93 0.37-0.37c0.51 0.31 0.74 0.98 0.5 1.5-0.24 0.53 2.3 3.84 5.81 7.6 3.44 3.67 8.35 8.14 10.93 9.94 2.58 1.8 4.52 3.61 4.32 4.02-0.23 0.45 0.14 0.53 0.93 0.2 1.04-0.43 1.16-0.32 0.57 0.56-0.56 0.81-0.51 0.95 0.18 0.54 0.52-0.3 1.95 0.04 3.19 0.76 1.24 0.72 2 1.62 1.69 2-0.31 0.38-0.15 0.46 0.37 0.19 0.52-0.28 3.56 0.71 6.75 2.2 3.2 1.48 8.85 3.83 12.57 5.21 3.71 1.38 14 4.7 22.87 7.38 8.87 2.67 18.83 5.88 22.13 7.13 3.29 1.25 7.14 3.05 8.55 3.99 1.4 0.94 2.92 2.27 3.37 2.95 0.63 0.94 0.51 1.7-0.49 3.19-0.72 1.07-3.59 3.02-6.37 4.33-4.41 2.06-5.91 2.38-11.55 2.43-3.57 0.04-6.39-0.1-6.26-0.31 0.13-0.21-0.5-0.45-1.39-0.53-1.32-0.13-1.41-0.02-0.49 0.62 0.79 0.55-0.98 0.64-6 0.3-3.92-0.26-7.46-0.77-7.87-1.13-0.42-0.37-1.26-0.48-1.88-0.24-0.62 0.23-4.42-0.38-8.45-1.36-4.03-0.98-7.32-1.95-7.32-2.16 0.01-0.21-0.91-0.42-2.04-0.48-1.14-0.05-3.08-0.52-4.31-1.04-1.24-0.52-2.76-1.01-3.38-1.1-0.62-0.08-2.54-0.63-4.27-1.2-1.73-0.58-3-1.31-2.81-1.62 0.18-0.31-0.09-0.38-0.61-0.16-0.51 0.22-2.2-0.12-3.75-0.75-1.54-0.63-3.15-0.98-3.56-0.78-0.41 0.21-0.75 0.04-0.75-0.37 0-0.41-1.43-1.28-3.19-1.93-1.75-0.66-7.24-3.01-12.18-5.24-5.92-2.66-10.03-4.06-12-4.08-1.99-0.01-3.76 0.55-5.25 1.68-1.24 0.93-2.36 2.2-2.5 2.82-0.13 0.62-0.56 3.66-0.95 6.75-0.39 3.09-1.55 14.4-2.57 25.12-1.02 10.73-1.85 21.45-1.86 23.82 0 2.37 0.51 5.32 1.13 6.56q1.12 2.25 5.06 4.06c2.16 0.99 6.13 2.65 8.81 3.67 2.68 1.02 6.9 2.55 9.38 3.39 2.47 0.85 6.86 2.23 9.74 3.07 2.89 0.84 7.45 2.03 10.13 2.63 2.68 0.61 5.89 1.29 7.12 1.52 1.24 0.23 5.46 0.95 9.38 1.6 4.53 0.76 14.22 1.33 26.62 1.58 15.27 0.31 21.78 0.13 30-0.82 5.78-0.68 14.72-2.1 19.88-3.17 5.16-1.06 13.76-3.36 19.12-5.11 5.37-1.75 12.71-4.58 16.32-6.3 3.61-1.72 6.9-2.95 7.31-2.75 0.41 0.21 1-0.04 1.31-0.55q0.56-0.93-0.37-0.37c-0.52 0.3-0.94 0.38-0.94 0.17 0-0.2 0.93-0.84 2.06-1.41 1.14-0.57 3.75-2.31 5.81-3.86 2.07-1.55 4.09-2.86 4.5-2.91 0.42-0.05 1.85-0.84 3.19-1.76 1.49-1.03 2.29-2.12 2.06-2.81-0.2-0.61-0.03-1.12 0.38-1.12 0.41 0 0.75-0.51 0.75-1.13 0-0.61 0.76-1.89 1.69-2.83 0.93-0.95 1.43-1.37 1.11-0.94-0.32 0.43-0.58 1.11-0.58 1.52 0 0.42 0.51 0.08 1.12-0.75 0.61-0.82 1.11-2 1.1-2.62 0-0.62 0.6-1.63 1.34-2.25 1.2-1 1.25-1 0.45 0-0.49 0.62-0.83 1.85-0.75 2.74 0.08 0.89 0.4 1.49 0.71 1.32 0.31-0.17 0.39-0.82 0.18-1.44-0.2-0.61 0.27-2.05 1.04-3.18 0.78-1.14 2.17-3.42 3.1-5.07 0.93-1.65 2.34-4.85 3.13-7.12 0.79-2.27 1.92-6.4 2.52-9.19 0.63-2.93 1.09-9.08 1.08-14.62 0-6.8-0.41-11.3-1.43-15.57-0.79-3.29-2.32-8.02-3.41-10.5-1.09-2.47-3.39-6.62-5.13-9.22-1.73-2.59-3.4-4.7-3.71-4.69-0.31 0.02-0.56-0.47-0.56-1.09 0-0.61-0.84-1.46-1.88-1.87-1.03-0.41-1.87-0.92-1.87-1.13 0-0.2 0.42-0.16 0.94 0.11 0.51 0.26-0.25-0.67-1.69-2.08-1.44-1.4-2.71-2.46-2.81-2.35-0.11 0.11-0.61-0.24-1.13-0.77-0.51-0.53-1.33-1.63-1.8-2.44-0.48-0.8-1.24-1.38-1.69-1.28-0.45 0.11-0.74-0.23-0.63-0.75 0.1-0.51-0.37-0.94-1.06-0.94-0.68 0-2.45-1.26-3.94-2.81-1.48-1.54-2.94-2.65-3.25-2.44-0.31 0.2-1.01-0.23-1.56-0.94-0.61-0.81-0.8-0.87-0.5-0.18 0.28 0.62-0.12 0.4-0.88-0.49-0.76-0.88-2.81-2.31-4.56-3.18-1.76-0.87-3.61-1.33-4.12-1.02-0.56 0.34-0.72 0.26-0.4-0.19 0.29-0.42-0.86-1.39-2.63-2.22-1.74-0.82-3.33-1.66-3.54-1.88-0.21-0.22-0.88-0.45-1.5-0.52-0.62-0.07-4.58-1.33-8.81-2.81-4.23-1.48-8.2-2.69-8.82-2.69-0.61 0-1.12-0.25-1.12-0.56 0-0.31-1.1-0.64-2.44-0.74-1.34-0.09-2.52-0.52-2.62-0.94-0.11-0.42-0.53-0.59-0.94-0.39-0.41 0.21-1.85 0.06-3.19-0.34-1.34-0.4-5.54-1.67-9.33-2.81-3.8-1.15-6.78-2.26-6.64-2.47 0.14-0.21-0.63-0.4-1.73-0.43-1.09-0.03-4.26-1.12-7.05-2.43-2.94-1.39-5.06-2.86-5.06-3.52 0-0.61 1.43-1.78 3.19-2.58 1.75-0.8 5.72-1.86 8.81-2.34 3.52-0.56 8.86-0.71 14.25-0.41 4.74 0.26 11.66 1.15 15.37 1.97 3.72 0.83 9.46 2.39 12.75 3.48 3.3 1.08 10.31 4.12 15.57 6.74 7.34 3.66 10.3 4.76 12.75 4.74 2.18-0.02 3.89-0.58 5.43-1.79 1.66-1.31 2.06-2.04 1.51-2.79-0.54-0.74-0.48-0.86 0.19-0.45 0.57 0.34 1.09 0.05 1.33-0.75 0.23-0.72 0.91-4.69 1.53-8.82 0.61-4.12 2.28-15.34 3.72-24.93 1.43-9.59 2.6-19.13 2.6-21.19 0-2.85-0.42-4.25-1.76-5.81-0.96-1.14-4.25-3.29-7.31-4.79-3.05-1.49-6.23-2.97-7.06-3.29-0.82-0.31-2-0.64-2.62-0.73-0.62-0.09-2.64-0.56-4.5-1.06-1.86-0.49-3.88-1.09-4.5-1.32-0.62-0.23-2.14-0.56-3.38-0.72-1.23-0.16-6.29-0.72-11.25-1.24l-9-0.94c-0.81-9.86-1.22-15.43-1.44-18.73-0.3-4.41-0.93-7.03-2.39-9.93-1.09-2.16-1.94-4.78-1.88-5.81 0.05-1.03 0.34-1.87 0.65-1.86 0.31 0.01 1.24 0.59 2.06 1.3 0.83 0.7 0.41 0.1-0.92-1.34-1.33-1.43-2.43-3.36-2.44-4.29 0-0.93 0.52-2.2 1.17-2.82 0.68-0.65 2.57-1.12 4.5-1.12 2.54 0 3.4 0.31 3.65 1.31 0.18 0.72 0.69 2.75 1.13 4.5 0.51 2.09 2.02 4.5 4.35 6.98 2.42 2.58 4.83 4.26 7.5 5.25 2.17 0.8 5.63 1.46 7.69 1.46 2.06 0 5.1-0.59 6.76-1.31 1.65-0.72 2.84-1.48 2.64-1.69-0.2-0.21 0.48-1.3 1.5-2.44 1.02-1.13 2.19-3.33 2.6-4.87 0.41-1.55 0.74-4 0.73-5.44 0-1.44-0.42-3.93-0.93-5.52-0.51-1.6-1.94-4.09-3.18-5.55-1.23-1.45-3.51-3.27-5.06-4.04-1.54-0.76-4.24-1.59-6-1.84-1.75-0.25-4.7-0.06-6.56 0.41l-3.38 0.87c-5.23-5.13-8.26-7.65-10.12-8.9-1.86-1.25-5.23-3.02-7.5-3.93-2.27-0.91-6.66-2.12-9.75-2.68-3.09-0.56-6.64-1-7.88-0.98-1.23 0.03-4.61 0.48-7.5 1.01zm-8.18 140.51c-1.21 0.29-2.32 0.85-2.47 1.26-0.16 0.42 0.66 1.16 1.81 1.65 1.15 0.5 3.95 1.42 6.22 2.06 2.27 0.63 4.29 1 4.5 0.81 0.21-0.18-1.06-0.68-2.81-1.11-1.76-0.43-3.19-0.95-3.19-1.16 0-0.2 0.84-0.2 1.87 0 1.04 0.21 2.4-0.04 3.04-0.56 0.64-0.51 1.14-1.19 1.12-1.5-0.01-0.31-1.13-0.7-2.47-0.87-1.34-0.17 2.46-0.19 8.44-0.05 6.37 0.16 12.89 0.75 15.75 1.44 2.68 0.64 5.04 1.02 5.25 0.84 0.21-0.18-2.16-0.91-5.25-1.63-3.79-0.87-9.55-1.36-17.63-1.49-6.6-0.11-12.98 0.03-14.18 0.31zm47.56 6.73c1.44 0.68 6.84 3.2 12 5.6 5.16 2.4 9.46 4.26 9.55 4.15 0.1-0.12-4.88-2.66-11.06-5.65-6.18-2.99-11.66-5.42-12.18-5.39-0.51 0.02 0.25 0.6 1.69 1.29zm-117.76 60.54c0 0.2 2.03 1.38 4.51 2.62 2.48 1.24 4.66 2.17 4.85 2.06 0.19-0.1-1.84-1.28-4.52-2.62-2.67-1.33-4.85-2.26-4.84-2.06zm13.51 6.69c1.03 0.55 6.43 2.58 12 4.51 5.57 1.93 16.71 5.37 24.75 7.64 8.04 2.28 16.99 5.1 19.87 6.29 2.89 1.18 5.68 2.6 6.2 3.13 0.51 0.54 0.77 1.49 0.57 2.11-0.21 0.62-1.64 1.9-3.19 2.85-2.04 1.25-2.3 1.59-0.95 1.21 1.03-0.29 2.62-1.07 3.53-1.73 0.91-0.66 1.84-1.71 2.07-2.33 0.23-0.62-0.18-1.73-0.9-2.47-0.73-0.74-4.03-2.37-7.33-3.62-3.29-1.25-13.42-4.43-22.5-7.05-9.07-2.63-18.86-5.6-21.75-6.61-2.88-1-7.02-2.54-9.18-3.41-2.17-0.88-4.19-1.58-4.5-1.56-0.31 0.02 0.28 0.48 1.31 1.04zm-32.9 7.69c-0.1 1.79 0.31 2.29 2.7 3.24 1.55 0.61 3.08 1.2 3.39 1.31 0.31 0.1 0.57-0.4 0.59-1.12 0.02-0.77-0.98-1.78-2.41-2.44-1.34-0.62-2.82-1.57-3.29-2.12-0.69-0.78-0.89-0.54-0.98 1.13zm20.12 8.51c0.01 0.4 0.37 0.73 0.78 0.73 0.41 0 0.58 0.34 0.37 0.75-0.2 0.41 0.31 1.09 1.13 1.5q1.5 0.75 1.12 0c-0.22-0.44 0.39-0.6 1.5-0.38 1.04 0.21 1.88 0.04 1.88-0.37 0-0.41-0.59-0.8-1.31-0.87-0.72-0.06-1.74-0.06-2.25 0-0.52 0.07-0.96-0.18-0.97-0.55-0.02-0.37-0.55-0.86-1.16-1.1-0.62-0.24-1.11-0.11-1.09 0.29zm146.66 58.56c-1.65 1.25-5.11 3.44-7.69 4.85-2.58 1.41-4.69 2.74-4.69 2.94 0 0.21 1.94-0.65 4.31-1.9 2.37-1.25 6.17-3.62 8.44-5.25 2.27-1.64 3.79-2.96 3.37-2.95-0.41 0.01-2.1 1.05-3.75 2.31zm-28.12 14.27c-1.03 0.41-5.59 1.89-10.13 3.29-4.53 1.4-7.74 2.56-7.12 2.59 0.62 0.03 5.43-1.31 10.69-2.97 5.26-1.65 9.56-3.18 9.56-3.39 0-0.2-0.25-0.35-0.56-0.32-0.31 0.02-1.41 0.38-2.44 0.8zm-109.5 8.58c2.68 0.55 5.89 0.98 7.13 0.95 1.23-0.02-0.29-0.49-3.38-1.03-3.09-0.54-6.3-0.97-7.13-0.95-0.82 0.01 0.7 0.48 3.38 1.03zm31.88 3.13c3.3 0.14 8.53 0.14 11.62 0 3.09-0.14 0.39-0.26-6-0.26-6.39 0-8.93 0.12-5.62 0.26z"/>
			<path id="Path 4" fill-rule="evenodd" class="s0" d="m308.5 261.69c-2.68 0.58-7.74 2.49-11.25 4.24-4.89 2.44-7.79 4.58-12.43 9.19-4.24 4.21-6.76 7.46-8.43 10.88-1.3 2.68-2.88 7.32-3.5 10.31-0.63 2.99-1.11 6.03-1.08 6.75 0.04 0.94 0.31 0.76 0.94-0.63 0.48-1.07 1.3-1.82 1.81-1.68 0.62 0.16 0.78 0.96 0.47 2.31q-0.46 2.04 0.26 1.32c0.41-0.42 2.05-3.88 3.66-7.7 1.61-3.82 3.35-6.94 3.86-6.94 0.52 0.01 3.89 4.05 7.5 8.98 3.67 5.02 6.89 8.74 7.31 8.44 0.44-0.32 0.51-0.15 0.18 0.4-0.34 0.58 0.54 2.08 2.26 3.91 1.55 1.63 2.72 3.06 2.6 3.18-0.12 0.13 0.8 1.15 2.06 2.29 1.25 1.13 2.62 2.06 3.03 2.06 0.41 0 0.77-0.76 0.8-1.69 0.03-0.93 0.2-4.72 0.37-8.43 0.21-4.52-0.05-7.99-0.77-10.5-0.6-2.07-1.01-3.85-0.93-3.97 0.09-0.12 2.35 0.47 5.03 1.32 2.68 0.85 5.47 1.54 6.19 1.53 1.17-0.01 1.21-0.28 0.37-2.59-0.51-1.42-3.04-4.71-5.62-7.31-2.57-2.61-4.68-4.99-4.68-5.3-0.01-0.31 0.5-0.39 1.11-0.18 0.62 0.2 1.12-0.05 1.1-0.57-0.01-0.51 0.66-0.01 1.5 1.13 0.84 1.13 2.2 2.23 3.03 2.44 0.85 0.21 2.08-0.2 2.85-0.94 0.74-0.72 1.61-2.33 1.93-3.56 0.32-1.24 1.32-3.03 2.21-3.97 0.9-0.94 4.08-2.71 7.07-3.94l5.44-2.22c10.17 4.71 13.41 5.8 13.75 5.47 0.34-0.33 0.26-1.35-0.19-2.28-0.44-0.93-2.24-2.83-4-4.23-1.75-1.39-4.96-3.42-7.12-4.5-2.17-1.08-6.05-2.46-8.63-3.07-2.58-0.62-7.05-1.1-9.94-1.07-2.88 0.03-7.44 0.53-10.12 1.12zm-65.11 24.87c-0.95 0.24-3.99 1.1-6.75 1.9-2.76 0.8-6.87 2.48-9.14 3.72-2.27 1.25-6.29 4-8.94 6.11-2.65 2.11-6.36 5.58-8.25 7.7-1.89 2.13-4.19 5.25-5.12 6.94-0.93 1.69-1.44 3.08-1.13 3.09 0.31 0.01 0.95-0.84 1.43-1.89 0.47-1.05 1.82-2.27 3-2.71 1.17-0.44 3.49-1.78 5.13-2.98 2.37-1.71 4.04-2.25 7.88-2.53 2.68-0.2 7.07 0.09 9.75 0.65 2.68 0.55 6.9 2.12 9.37 3.48 2.48 1.36 4.67 2.6 4.88 2.76 0.21 0.16-0.05 0.52-0.57 0.8-0.57 0.32 1.07 1.33 4.12 2.56 2.79 1.12 5.58 2.23 6.2 2.47 0.77 0.29 1.24-0.17 1.5-1.46 0.29-1.44 0.06-1.89-0.94-1.91-0.72 0-1.31-0.18-1.31-0.39 0-0.2 1.27-1.54 2.81-2.97 1.55-1.44 3.07-2.62 3.38-2.63 0.31-0.01 1.57 0.82 2.81 1.85 2.01 1.68 2.29 1.74 2.59 0.57 0.18-0.72 1.03-4.94 1.87-9.38 0.85-4.43 1.54-8.4 1.54-8.81 0-0.41-1.77-1.64-3.94-2.72-2.16-1.09-5.45-2.43-7.31-2.98-1.86-0.55-5.57-1.16-8.25-1.34-2.68-0.18-5.65-0.14-6.61 0.1z"/>
			<path id="Path 5" fill-rule="evenodd" class="s1" d="m355.03 274.25c-1.43 0.52-3.21 1.78-3.95 2.79-0.74 1.01-1.66 3.19-2.05 4.83-0.45 1.91-0.45 3.07 0 3.19 0.4 0.11 0.76 0.78 0.8 1.5 0.05 0.72 0.38-0.2 0.75-2.06 0.42-2.11 1.51-4.22 2.89-5.63l2.23-2.25c-0.84 5.69-0.64 6.22 1.46 8.07 1.67 1.47 3.14 2.06 5.15 2.05 1.55-0.01 3.32-0.33 3.94-0.72 0.72-0.46 1.06-1.66 0.94-3.37-0.11-1.46 0.06-2.66 0.37-2.67 0.31-0.01 1.31 1.26 2.23 2.82 0.92 1.56 1.68 4.16 1.71 5.83 0.05 2.98 0.06 2.98 1.13 1.12 0.96-1.69 1.08-1.73 1.16-0.38 0.06 1.07 0.28 0.86 0.77-0.75 0.47-1.56 0.34-3.27-0.43-5.62-0.6-1.86-2.03-4.29-3.17-5.4-1.15-1.11-3.35-2.54-4.9-3.19-1.54-0.64-4.08-1.15-5.62-1.13-1.55 0.02-3.98 0.45-5.41 0.97zm-74.46 27.69c-1.39 3.4-4.37 10.65-6.62 16.12-2.24 5.46-4.33 9.93-4.64 9.93-0.31 0.01-6.21-2.2-13.12-4.9-6.91-2.7-12.64-4.81-12.74-4.69-0.1 0.13 0.67 4.44 1.7 9.6 1.03 5.16 1.7 9.8 1.49 10.31-0.22 0.52-0.05 0.77 0.36 0.56 0.41-0.2 0.91 0.39 1.11 1.32 0.21 0.93 0.37 1.94 0.38 2.25 0.01 0.31-0.58 0.55-1.3 0.55-1.11-0.01-1.14-0.11-0.19-0.66 0.84-0.49 0.46-0.78-1.5-1.13-1.44-0.26-5.49-0.64-9-0.84-4.96-0.28-5.88-0.19-4.12 0.41 1.23 0.42 4.52 1.26 7.31 1.87 2.78 0.61 6.07 1.11 7.31 1.11h2.25c-0.56-8.43-1.19-12.56-1.77-14.63-0.58-2.06-1.43-4.67-1.89-5.81-0.46-1.13-0.85-2.48-0.86-3-0.02-0.65 0.37-0.58 1.31 0.24 0.73 0.65 3.87 2.72 6.96 4.59 3.09 1.87 7.9 4.63 10.69 6.13 2.78 1.5 5.48 2.62 6 2.48 0.51-0.14 1.87-2.08 3.02-4.31l2.09-4.07c-0.78 6.98-1.13 9.17-1.27 9.38-0.15 0.21 0.15 0.81 0.66 1.35 0.75 0.77 0.71 0.96-0.19 0.96-0.82-0.01-0.71 0.27 0.38 1.03 1.42 0.99 1.34 1.09-1.5 1.91-1.65 0.47-2.84 0.99-2.63 1.14 0.21 0.15 3.58-0.56 7.5-1.58 3.92-1.02 12.02-2.52 18-3.32 5.98-0.8 12.39-1.47 14.25-1.49 2.46-0.02 3.07-0.22 2.25-0.75-0.62-0.4-1.72-0.73-2.44-0.74-0.72 0-1.98-0.69-2.81-1.51-0.83-0.82-1.25-1.49-0.94-1.49 0.31 0.01 4.11-2.22 8.44-4.94 4.33-2.73 9.3-6.37 11.03-8.08 3.16-3.11 3.16-3.11 3.57-1.24 0.22 1.03 0.97 4.41 1.66 7.5 0.69 3.09 1.27 6.72 1.31 8.06 0.03 1.34 0.39 2.44 0.81 2.45 0.48 0 0.53-1.89 0.12-5.44-0.35-2.99-1.1-8.48-1.68-12.2-0.57-3.71-1.22-6.83-1.43-6.93-0.22-0.11-4.02 2.44-8.45 5.66-4.44 3.21-9.36 6.67-10.94 7.69l-2.87 1.83c-6.95-6.97-11.27-12.03-14.08-15.75-2.8-3.71-6.07-8.19-7.26-9.96-1.19-1.77-2.39-3.21-2.67-3.19-0.27 0.02-1.65 2.81-3.05 6.22zm-88.05 30.84c-1.3 0.58-3.14 2.19-4.1 3.58-1.08 1.56-1.84 3.94-2.02 6.26-0.15 2.07 0.13 4.77 0.62 6 0.5 1.24 1.04 1.83 1.19 1.32 0.16-0.52 0.54-0.81 0.85-0.64 0.31 0.16 0.44-1.44 0.28-3.57-0.18-2.45 0.13-4.67 0.85-6.11 0.62-1.23 1.68-2.75 2.35-3.37 1.11-1.03 1.17-0.87 0.7 1.87-0.45 2.7-0.26 3.26 1.88 5.44 1.31 1.34 2.89 2.44 3.51 2.44 0.61 0 1.12-0.34 1.12-0.75 0-0.41 1.18-0.75 2.63-0.75 2.41 0 2.62-0.18 2.62-2.25 0-1.24-0.34-2.93-0.75-3.75q-0.75-1.5 0-1.13c0.41 0.21 1.77 1.81 3.02 3.57 1.25 1.75 2.3 4.03 2.34 5.06 0.04 1.13 0.18 1.35 0.35 0.56 0.24-1.08 0.49-1.15 1.45-0.37 0.98 0.8 1.15 0.66 1.13-0.94-0.02-1.03-0.79-3.37-1.72-5.21-0.93-1.83-3-4.36-4.58-5.62-2.34-1.85-3.71-2.33-7.13-2.49-2.45-0.12-5.23 0.24-6.59 0.85zm35.73 6.84c-0.01 0.42 0.81 3.12 1.81 6 1.01 2.89 2.45 6.83 3.2 8.75 0.75 1.92 1.53 3.66 1.74 3.88 0.21 0.22 1.22-0.28 2.25-1.1 1.82-1.45 1.82-1.48 0.19-1.07-1.39 0.35-1.76 0.05-2.09-1.64-0.22-1.14-0.9-3.84-1.5-6-0.61-2.17-1.44-4.11-1.85-4.32-0.42-0.2-0.58 0.21-0.36 0.94 0.21 0.72-0.46-0.37-1.49-2.44-1.03-2.06-1.89-3.41-1.9-3zm93.75 0.44c-6.39 0.35-16.52 1.35-22.5 2.21-5.98 0.87-13.24 2.07-16.12 2.67-2.89 0.61-7.87 1.85-11.06 2.77-3.19 0.92-5.72 1.76-5.62 1.87 0.09 0.12 2.96-0.47 6.36-1.31 3.41-0.84 7.03-1.52 8.07-1.52 1.03 0 1.7 0.34 1.5 0.75q-0.38 0.75 2.06 0c1.34-0.41 3.62-0.72 5.06-0.68l2.63 0.08c-4.65 1.1-10.73 2.77-16.5 4.43-5.78 1.66-13.04 4.03-16.13 5.26-3.09 1.24-8.15 3.84-11.24 5.77-3.09 1.93-7.83 5.71-10.54 8.39-3.46 3.42-5.87 6.72-8.07 11.06-1.73 3.41-3.23 6.05-3.34 5.88-0.1-0.17-0.27 0.42-0.36 1.31-0.1 0.89-0.4 5.34-0.66 9.87-0.43 7.21-0.29 8.87 1.1 13.13 0.87 2.68 2.69 6.64 4.04 8.81 1.34 2.16 4.98 6.14 8.07 8.85 3.09 2.7 7.99 6.32 10.88 8.03 2.88 1.71 8.79 4.5 13.12 6.21 4.33 1.7 11.25 4.32 15.38 5.83 4.12 1.5 9.52 3.47 12 4.37 2.47 0.91 4.07 1.76 3.56 1.9-0.52 0.14-0.94 0.76-0.94 1.37 0 0.62 0.59 1.46 1.31 1.86 0.72 0.4 0.89 0.73 0.38 0.75-0.52 0.01-6.76-1.66-13.88-3.72-7.11-2.06-15.47-4.72-18.56-5.91-3.09-1.19-7.99-3.27-10.87-4.61-2.89-1.35-7.95-4.21-11.25-6.37-3.3-2.16-7.83-5.91-10.07-8.34-2.23-2.42-5.01-6.43-6.18-8.9-1.18-2.48-2.64-6.36-3.25-8.63-0.61-2.27-1.12-6.99-1.12-10.5-0.01-4.1 0.52-8.32 1.49-11.81 0.82-2.99 2.22-6.87 3.11-8.63 0.88-1.75 3.03-5.04 4.77-7.31 1.74-2.27 4.98-5.66 7.2-7.54 2.23-1.88 5.23-4.22 6.67-5.2 1.44-0.98 3.81-2.84 5.25-4.14 1.44-1.29 5.57-3.51 9.17-4.92 3.6-1.42 6.47-2.66 6.37-2.77-0.09-0.11-2.7 0.69-5.79 1.77-3.09 1.08-9.17 3.77-13.5 5.97-4.33 2.2-10.07 5.64-12.75 7.65-2.68 2.02-6.47 5.66-8.41 8.11-1.95 2.44-4.44 6.3-5.54 8.57-1.09 2.27-2.64 6.66-3.43 9.75-0.95 3.74-1.38 7.76-1.29 12 0.08 3.51 0.63 8.4 1.22 10.88 0.59 2.47 1.16 4.83 1.25 5.25 0.09 0.41 1.12 2.6 2.29 4.87 1.17 2.27 2.84 5.14 3.7 6.38 0.87 1.23 3.52 4.19 5.89 6.56 2.38 2.37 4.32 4.14 4.32 3.94 0-0.21 0.46 0.04 1.03 0.56 0.57 0.51 1.78 1.44 2.7 2.06 0.91 0.62 2.39 1.73 3.28 2.46 0.89 0.73 2.04 1.33 2.55 1.31 0.52-0.01 0.94 0.32 0.94 0.73 0 0.41 0.76 0.97 1.69 1.23 0.93 0.26 3.54 1.34 5.81 2.4 2.27 1.06 4.29 2.11 4.5 2.33 0.21 0.23 1.05 0.53 1.88 0.68 0.82 0.14 2.51 0.81 3.75 1.47 1.23 0.66 2.5 1.3 2.81 1.42 0.31 0.12 0.73 0.22 0.94 0.22 0.2 0 0.62 0.09 0.93 0.2 0.31 0.11 0.99 0.45 1.5 0.75 0.55 0.32 0.94 0.16 0.95-0.39 0.01-0.73 0.13-0.73 0.56 0.02 0.35 0.61 1.1 0.75 2.06 0.39 1.08-0.41 1.34-0.31 0.93 0.36-0.31 0.51-0.22 1.09 0.19 1.3 0.41 0.2 0.75 0.03 0.75-0.38 0-0.41 0.34-0.75 0.75-0.75 0.41 0 0.62 0.25 0.45 0.56-0.16 0.31 0.93 0.63 2.44 0.72 1.5 0.08 2.82 0.5 2.92 0.93 0.11 0.45 0.72 0.55 1.4 0.23 0.84-0.39 1.13-0.25 0.94 0.45q-0.26 1.01 3.48 2c2.06 0.54 3.89 0.84 4.06 0.67 0.17-0.17-0.14-0.31-0.69-0.31-0.55 0-0.78-0.17-0.5-0.37 0.27-0.21 1.43 0.32 2.56 1.18 1.17 0.88 2.15 1.21 2.25 0.75 0.11-0.45 0.53-0.81 0.94-0.81 0.41 0 0.58 0.34 0.38 0.75-0.21 0.41-0.04 0.75 0.37 0.75 0.41 0 1 0.1 1.31 0.22 0.31 0.12 2.84 0.96 5.63 1.87 2.78 0.91 5.23 2 5.44 2.41 0.2 0.41 1.04 0.75 1.87 0.75 0.83 0 4.14 1.6 7.37 3.56 3.22 1.96 6.92 4.75 8.22 6.19 1.3 1.44 2.56 3.64 2.8 4.88 0.23 1.23 0.57 3.09 0.75 4.12 0.17 1.03-0.09 3.18-0.6 4.78-0.55 1.76-2.25 4.13-4.29 5.97-1.86 1.68-5.06 3.78-7.12 4.68-2.07 0.89-6.29 2.2-9.38 2.9-3.61 0.82-8.58 1.25-13.87 1.21-4.54-0.04-10.45-0.22-13.13-0.41-2.68-0.18-6.23-0.54-7.87-0.8-1.65-0.26-3.76-0.95-4.69-1.53-0.93-0.58-1.52-0.71-1.31-0.3 0.22 0.46-0.43 0.58-1.69 0.31-1.14-0.24-2.57-0.62-3.19-0.85-0.62-0.22-2.14-0.56-3.37-0.75-1.24-0.19-2.68-0.4-3.19-0.47-0.52-0.06-0.93-0.45-0.92-0.86 0.01-0.42-0.24-0.5-0.56-0.19-0.32 0.31-1.23-0.03-2.03-0.75-0.81-0.74-1.14-0.85-0.75-0.24 0.55 0.85 0.38 0.97-0.8 0.58-0.83-0.27-3.78-1.17-6.57-2.01-2.78-0.84-5.23-1.86-5.43-2.27-0.21-0.41-1.05-0.75-1.88-0.75-0.82 0-1.33-0.34-1.12-0.75 0.2-0.41-0.22-0.63-0.94-0.48-0.72 0.15-3-0.38-5.06-1.19-2.07-0.8-6.62-2.83-10.13-4.5-3.51-1.67-6.54-3.24-6.75-3.49-0.21-0.26-0.97-0.55-1.69-0.65-0.9-0.13-1.43 0.45-1.69 1.87-0.21 1.14-0.56 4.6-0.77 7.69-0.21 3.09-0.87 10.01-1.46 15.38-0.59 5.36-1.27 12.11-1.53 14.99-0.25 2.89-0.6 6.35-0.78 7.69-0.25 1.86-0.02 2.53 0.98 2.81 0.72 0.2 1.65 0.34 2.07 0.31 0.41-0.03 0.91 0.25 1.12 0.64 0.21 0.38 2.99 1.59 6.19 2.69 3.19 1.09 9.44 2.99 13.87 4.2 4.44 1.22 10.93 2.72 14.44 3.34 3.51 0.61 8.23 1.31 10.5 1.55 2.27 0.24 7.5 0.71 11.63 1.06 4.12 0.34 12.05 0.53 17.62 0.42 5.57-0.11 12.23-0.4 14.81-0.64 2.58-0.24 6.97-0.8 9.75-1.23 2.79-0.43 6.25-0.96 7.69-1.17 1.44-0.21 5.49-1.07 9-1.92 3.51-0.84 10.26-2.81 15-4.36 4.74-1.55 10.73-3.88 13.31-5.17 2.58-1.29 4.87-2.09 5.09-1.78 0.21 0.31 0.37 0.06 0.35-0.56-0.02-0.62 0.14-0.87 0.35-0.56 0.22 0.31 0.82 0.22 1.34-0.21 0.51-0.42 3.13-2.16 5.81-3.86 2.68-1.71 5.32-3.56 5.87-4.11 0.54-0.56 1.38-1.04 1.87-1.07 0.49-0.04 3.37-2.82 6.4-6.19 3.92-4.36 6.44-8.07 8.75-12.88 1.78-3.71 3.57-8.43 3.99-10.49 0.42-2.07 0.98-6.12 1.25-9 0.33-3.48 0.1-7.73-0.69-12.57-0.65-4.02-1.98-9.42-2.94-12-0.97-2.58-3.05-6.71-4.62-9.18-1.58-2.48-4.59-6.31-6.69-8.52-2.1-2.21-6.18-5.8-9.06-7.98-2.89-2.18-8.29-5.49-12-7.35-3.72-1.86-10.3-4.58-14.63-6.04-4.33-1.46-8.72-2.82-9.75-3.03-1.03-0.21-2.55-0.56-3.37-0.77-0.83-0.22-7.41-1.93-14.63-3.81-7.22-1.88-14.31-3.78-15.75-4.22-1.44-0.45-5.49-2.03-9-3.51-3.51-1.49-7.51-3.73-8.89-4.99-1.38-1.26-2.95-3.13-3.49-4.16-0.53-1.03-1.14-2.89-1.35-4.13-0.22-1.29 0.17-3.52 0.91-5.25 0.71-1.64 2.12-3.76 3.12-4.7 1-0.93 3.85-2.78 6.33-4.1 2.47-1.33 4.75-2.5 5.06-2.61 0.31-0.12 0.64-0.24 0.75-0.27 0.1-0.03 1.03-0.22 2.06-0.43 1.03-0.21 2.38-0.49 3-0.64 0.62-0.14 1.13-0.31 1.13-0.39 0-0.07 1.01-0.26 2.25-0.43 1.23-0.16 6.63-0.32 12-0.35 5.36-0.02 10.76 0.13 12 0.34 1.23 0.21 3.43 0.54 4.87 0.74 1.44 0.2 5.33 1.08 8.63 1.97 3.29 0.89 8.19 2.41 10.87 3.37 2.68 0.97 6.06 2.21 7.5 2.76 1.44 0.55 5.66 2.77 9.38 4.94 3.71 2.17 6.79 3.86 6.84 3.75 0.06-0.11 1.35-8.46 2.87-18.57 1.52-10.11 3.16-21.19 3.65-24.62 0.77-5.41 0.73-6.33-0.24-6.83-0.62-0.32-2.64-0.95-4.5-1.4-1.86-0.45-4.39-1-5.62-1.23-1.24-0.22-3.1-0.58-4.13-0.8-1.03-0.22-3.9-0.68-6.37-1.03-2.48-0.35-7.21-0.69-10.5-0.75-3.3-0.07-7.36-0.24-9-0.39-1.65-0.16-8.24 0.01-14.63 0.36z"/>
			<path id="Path 6" fill-rule="evenodd" class="s2" d="m352.29 280.34c-0.67 1.01-1.23 3.29-1.22 5.06 0 1.77 0.51 4.24 1.12 5.48 0.61 1.23 2.17 3.17 3.46 4.31 1.89 1.66 3.08 2.06 6.1 2.06 2.06 0 4.42-0.34 5.25-0.75 0.83-0.41 2.01-1.76 2.62-3 0.62-1.24 1.13-3.6 1.13-5.25 0-1.65-0.57-4.1-1.27-5.44l-1.28-2.43c-0.82 4.65-1.69 6.44-2.44 6.99-0.84 0.6-2.35 0.82-3.82 0.56-1.34-0.24-2.61-0.09-2.82 0.32-0.2 0.41 0.05 0.89 0.57 1.07 0.51 0.17 0.34 0.34-0.38 0.37-0.72 0.03-2.15-0.78-3.19-1.81-1.57-1.58-1.84-2.49-1.68-5.63 0.1-2.06-0.06-3.75-0.36-3.75-0.3 0-1.11 0.83-1.79 1.84zm-161.32 58.72c-0.78 1.23-1.29 3.44-1.26 5.44 0.03 1.88 0.69 4.46 1.49 5.82 0.78 1.34 2.77 3.16 4.42 4.04 2.25 1.2 3.71 1.48 5.82 1.12 1.54-0.26 3.85-1.41 5.12-2.54 1.9-1.7 2.32-2.66 2.38-5.44 0.04-2.15-0.46-4.19-1.38-5.61l-1.44-2.23c-0.31 4.72-0.89 5.94-2.06 6.72-0.93 0.62-2.44 1.13-3.37 1.13-0.93-0.01-2.7-0.52-3.94-1.13-1.24-0.62-2.79-2.23-3.45-3.57-0.65-1.34-1.02-3.19-0.8-4.12 0.21-0.93 0.25-1.69 0.09-1.69-0.17 0-0.9 0.93-1.62 2.06z"/>
			<path id="Path 7" fill-rule="evenodd" class="s3" d="m354.36 282.44c-0.09 2.89 0.24 3.91 1.76 5.44 1.04 1.03 2.47 1.84 3.19 1.81 0.72-0.03 0.89-0.2 0.38-0.37-0.52-0.18-0.77-0.66-0.57-1.07 0.21-0.41 1.48-0.56 2.82-0.32 1.56 0.27 2.98 0.03 3.93-0.67 1.38-1.01 1.19-1.07-2.25-0.72-3.24 0.34-4.07 0.12-6.18-1.58-1.44-1.15-2.55-2.81-2.7-4.02-0.15-1.14-0.32-0.46-0.38 1.5zm-43.63-1.13c0.01 0.52-0.49 0.77-1.11 0.57-0.61-0.21-1.14-0.13-1.15 0.18-0.02 0.31 0.55 1.07 1.27 1.69 0.74 0.64 1.08 0.72 0.78 0.19-0.29-0.53-0.11-0.95 0.42-0.95 0.51-0.01 1.43 0.41 2.04 0.94 0.61 0.52 0.44 0.1-0.37-0.93-0.81-1.03-1.57-2.04-1.69-2.25-0.11-0.21-0.2 0.05-0.19 0.56zm37.28 1.5c-0.22 1.14-0.04 3.75 0.39 5.82 0.59 2.83 1.54 4.49 3.88 6.8 2.3 2.26 4.11 3.28 7.03 3.94 3.21 0.72 4.6 0.68 7.5-0.21 1.96-0.59 4.28-1.86 5.16-2.81 0.88-0.95 1.97-2.48 2.44-3.41 0.46-0.93 0.81-2.62 0.77-3.75l-0.08-2.06c-1.1 3.44-1.22 3.5-1.3 2.25-0.09-1.36-0.21-1.32-1.18 0.37-1.05 1.84-1.07 1.82-1.2-1.5l-0.13-3.37c-0.75 5.81-1.38 8.25-1.88 9.18-0.5 0.93-1.58 2.03-2.41 2.44-0.83 0.41-3.19 0.75-5.25 0.75-3.02 0-4.21-0.4-6.1-2.06-1.29-1.14-2.81-2.99-3.38-4.13-0.56-1.13-1.03-2.82-1.03-3.75-0.01-1.36-0.15-1.47-0.74-0.56-0.62 0.96-0.73 0.93-0.74-0.19 0-0.72-0.35-1.31-0.76-1.31-0.42 0-0.58-0.99-0.35-2.25 0.21-1.24 0.25-2.25 0.07-2.25-0.18 0-0.5 0.93-0.71 2.06zm-91.45 29.84c-1.13 1.02-2.06 2.02-2.06 2.23 0 0.2 0.68 0.37 1.5 0.37 0.93 0 1.5-0.5 1.49-1.31-0.01-0.72 0.4-1.74 0.9-2.25 0.5-0.52 0.76-0.93 0.57-0.92-0.18 0.02-1.26 0.86-2.4 1.88zm69.5 4.21c-1.2 1.28-5.56 4.53-9.69 7.22-4.12 2.68-8.17 5.21-9 5.62-1.34 0.66-1.38 0.86-0.37 2 0.62 0.69 2.14 1.55 3.37 1.9 1.24 0.36 6.95 0.68 12.69 0.71 8.7 0.05 10.48-0.12 10.69-1.06 0.14-0.62 0.08-0.7-0.13-0.19-0.2 0.52-0.62 0.94-0.93 0.94-0.31 0-0.59-1.1-0.63-2.44-0.03-1.34-0.78-5.64-1.67-9.56-0.88-3.92-1.73-7.21-1.87-7.3-0.15-0.1-1.25 0.87-2.46 2.16zm-11.94 2.55c-3.54 2.44-6.46 3.95-7.12 3.69-0.89-0.35-0.94-0.23-0.24 0.54 0.73 0.8 1.42 0.64 3.75-0.86 1.58-1.01 4.47-2.96 6.43-4.31 1.96-1.36 3.56-2.64 3.56-2.84 0-0.21-0.08-0.37-0.19-0.37-0.1 0.01-2.89 1.88-6.19 4.15zm-69.39 0.9c0.01 0.52 0.4 1.87 0.86 3 0.46 1.14 1.31 3.75 1.89 5.82 0.58 2.06 1.23 6.28 1.45 9.37l0.41 5.63c-6.17-0.77-10.5-1.61-13.59-2.37l-5.63-1.38 7.5-0.89c-7.33-0.2-8.61 0.04-8.59 0.7 0.02 0.51 0.71 2.12 1.55 3.56 0.83 1.44 1.32 2.03 1.09 1.31-0.24-0.74-0.1-1.15 0.33-0.93 0.41 0.2 1.24 2.14 1.85 4.31 0.6 2.16 1.28 4.86 1.5 6 0.34 1.73 0.67 1.98 2.09 1.55 1.2-0.37 1.52-0.26 1.12 0.37-0.31 0.49 0.87-0.01 2.63-1.11 1.75-1.1 4.87-2.92 6.93-4.04 2.07-1.12 4.6-2.3 5.63-2.63 1.51-0.49 1.76-0.4 1.28 0.47-0.33 0.59 0.01 0.3 0.75-0.65 0.74-0.94 1.77-1.7 2.28-1.68 0.52 0.01 0.94 0.71 0.94 1.53 0 0.82 0.34 1.5 0.75 1.5 0.41 0 0.58-0.34 0.37-0.75-0.2-0.41-0.12-0.76 0.19-0.77 0.31-0.02 1.15 0.57 1.86 1.31 1.24 1.27 1 1.45-5.25 3.91-3.6 1.41-7.73 3.63-9.17 4.92-1.44 1.3-3.81 3.16-5.25 4.14-1.44 0.98-4.44 3.32-6.67 5.2-2.22 1.88-5.46 5.27-7.2 7.54-1.74 2.27-3.89 5.56-4.77 7.31-0.89 1.76-2.29 5.64-3.11 8.63-0.97 3.49-1.5 7.71-1.49 11.81 0 3.51 0.51 8.23 1.12 10.5 0.61 2.27 2.07 6.15 3.25 8.63 1.17 2.47 3.95 6.48 6.18 8.9 2.24 2.43 6.76 6.18 10.06 8.33 3.31 2.16 8.54 5.12 11.63 6.57 3.09 1.44 8.66 3.7 12.37 5.02 3.72 1.31 11.9 3.88 18.19 5.72 6.29 1.83 11.86 3.32 12.38 3.31 0.51-0.02 0.34-0.35-0.38-0.75-0.72-0.4-1.31-1.24-1.31-1.85 0-0.62 0.42-1.24 0.94-1.38 0.51-0.14-1.09-0.99-3.57-1.9-2.47-0.9-7.87-2.87-12-4.37-4.12-1.51-11.04-4.13-15.37-5.83-4.33-1.71-10.24-4.5-13.13-6.21-2.88-1.71-7.78-5.33-10.87-8.03-3.09-2.71-6.73-6.69-8.07-8.85-1.35-2.17-3.17-6.13-4.04-8.81-1.39-4.26-1.53-5.92-1.1-13.12 0.26-4.54 0.56-8.99 0.66-9.88 0.09-0.89 0.26-1.48 0.36-1.31 0.11 0.17 1.61-2.47 3.34-5.88 2.2-4.34 4.61-7.64 8.07-11.06 2.71-2.68 7.45-6.46 10.54-8.39 3.09-1.93 8.15-4.53 11.24-5.77 3.09-1.23 10.35-3.6 16.12-5.26 5.78-1.66 11.86-3.33 13.5-3.72l3-0.71c-4.06-0.12-6.34 0.19-7.68 0.6q-2.44 0.75-2.07 0c0.21-0.41-0.46-0.75-1.5-0.75-1.03 0-4.65 0.69-8.06 1.53-4.95 1.23-6.29 1.34-6.74 0.57-0.3-0.54-0.59-0.64-0.65-0.22-0.05 0.41-0.06 1-0.01 1.31 0.05 0.31-0.16 0.55-0.47 0.55-0.31-0.01-1.07-0.32-1.69-0.69-0.8-0.47-0.93-1.07-0.45-2.05 0.64-1.28 0.7-1.28 0.94-0.06 0.2 0.98 0.54 1.12 1.38 0.56 0.62-0.41 0.96-1.26 0.75-1.87-0.22-0.69-1.03-1.02-2.06-0.84-0.93 0.15-2.28 0.49-3 0.75-0.72 0.25-1.31 0.29-1.31 0.09 0-0.21 0.93-0.74 2.06-1.17 1.14-0.44 2.91-1.01 3.94-1.28 1.36-0.35 1.72-0.23 1.31 0.42q-0.55 0.89 0.56 0.53c0.66-0.22 0.9-0.76 0.57-1.29-0.41-0.66-0.1-0.76 1.12-0.37 1.04 0.33 1.55 0.24 1.31-0.22-0.2-0.41 0.56-1.09 1.69-1.5l2.06-0.76c-4.24 0.67-4.16 0.56-1.5-0.63 2.62-1.16 2.81-1.41 1.5-1.89-1.25-0.46-1.31-0.65-0.37-1.17 0.85-0.46 0.9-0.73 0.19-1.08-0.52-0.26-0.8-0.89-0.63-1.41 0.18-0.51 0.53-2.79 0.79-5.06l0.47-4.12c-3.25 6.29-4.62 8.23-5.13 8.37-0.52 0.14-3.22-0.98-6-2.48-2.79-1.5-7.6-4.26-10.69-6.13-3.09-1.87-6.23-3.94-6.96-4.59-0.94-0.82-1.33-0.89-1.31-0.24zm0.92 17.63c-0.06 1.88 0.1 2.18 0.69 1.31 0.69-1 0.74-1 0.46 0-0.23 0.85-1.31 1.09-4.36 0.98-2.24-0.08-3.56-0.01-2.94 0.14 0.62 0.16 2.8 0.5 4.84 0.77 2.64 0.35 3.4 0.69 2.63 1.16-0.91 0.56-0.87 0.68 0.22 0.69 0.98 0.01 1.21-0.42 0.92-1.68-0.22-0.93-0.53-2.61-0.7-3.75-0.16-1.13-0.61-2.06-0.99-2.06-0.38 0-0.73 1.1-0.77 2.44zm-41.55 0.51c0.38 0.8 0.73 2.49 0.79 3.75 0.1 2.15-0.06 2.3-2.52 2.3-1.44 0-2.62 0.34-2.62 0.75 0 0.41-0.42 0.76-0.94 0.78-0.51 0.01-1.86-0.66-3-1.5-1.13-0.84-2.37-2.63-2.74-3.97-0.38-1.34-0.72-1.84-0.75-1.12-0.04 0.72 0.44 2.32 1.05 3.56 0.62 1.24 2.14 2.76 3.38 3.38 1.24 0.61 3.01 1.12 3.94 1.13 0.93 0 2.44-0.51 3.37-1.13 1.22-0.81 1.69-1.87 1.69-3.75 0-1.87 0.27-2.49 0.94-2.13 0.51 0.27 0.22-0.41-0.65-1.5-0.87-1.1-1.81-2-2.1-2-0.29 0-0.22 0.65 0.16 1.45zm83.77 3.8q-2.27 0.58-0.75 0.67c0.83 0.06 2.35 0.27 3.38 0.48 1.68 0.34 1.72 0.3 0.37-0.39-1.15-0.59-0.63-0.69 2.25-0.43 2.68 0.25 3.22 0.16 1.88-0.29-1.03-0.35-2.55-0.63-3.38-0.63-0.82 0.01-2.51 0.28-3.75 0.59zm-75.22 3c-0.08 1.68-0.2 1.76-1.28 0.75-1.06-1-1.18-0.98-1.15 0.19 0.01 0.72-0.31 1.31-0.72 1.31-0.41 0-0.75 0.84-0.75 1.88 0 1.16-0.85 2.58-2.25 3.75-1.24 1.03-3.52 2.09-5.06 2.35-2.1 0.36-3.58 0.08-5.82-1.1-1.65-0.87-3.43-2.36-3.96-3.3-0.53-0.94-1.46-1.7-2.06-1.7-0.61 0-1.1 0.25-1.1 0.56 0 0.31-0.34 0.39-0.75 0.19-0.48-0.24-0.51 0.1-0.1 0.93 0.36 0.72 1.63 2.17 2.81 3.22 1.19 1.05 3.51 2.36 5.16 2.91 1.8 0.6 4.51 0.84 6.75 0.59 2.07-0.23 4.6-1.05 5.63-1.82 1.03-0.78 2.65-2.91 3.59-4.75 1.06-2.04 1.61-4.21 1.43-5.58-0.24-1.85-0.31-1.92-0.37-0.38z"/>
			<path id="Path 8" fill-rule="evenodd" class="s0" d="m329.13 543.03c-0.83 0.2-1.84 0.63-2.25 0.96-0.49 0.39-0.42 0.76 0.18 1.06 0.52 0.25 0.94 0.11 0.94-0.3 0-0.41 0.67-0.58 1.5-0.37 0.83 0.2 1.67 0.03 1.88-0.38 0.2-0.41 0.71-0.58 1.12-0.37 0.41 0.2 0.75 0.03 0.75-0.38 0-0.41-0.59-0.71-1.31-0.66-0.72 0.04-1.99 0.25-2.81 0.44zm-42.86 7.98c-0.17 0.51-1.46 0.77-3.1 0.63-2.12-0.18-2.52-0.05-1.67 0.55 0.62 0.43 1.86 0.79 2.76 0.8 0.9 0 2.08-0.47 2.62-1.05 0.55-0.59 1.67-0.89 2.5-0.67 0.82 0.22 1.75 0.02 2.06-0.44 0.38-0.56-0.32-0.81-2.16-0.75-1.49 0.04-2.85 0.46-3.01 0.93z"/>
			<path id="Path 9" fill-rule="evenodd" class="s3" d="m247.38 311.12c0.82 0.59 1.92 1.43 2.43 1.85 0.52 0.43 1.28 0.78 1.69 0.78 0.41 0 0.76-0.25 0.77-0.56 0-0.31-1.18-1.16-2.63-1.88-1.45-0.72-2.89-1.3-3.2-1.29-0.31 0.02 0.11 0.51 0.94 1.1zm-36.27 191.63c-0.07 0.62-0.63 6.69-1.23 13.5-0.61 6.81-1.12 14.15-1.12 16.31l-0.01 3.94c9.01 2.87 15.84 4.7 21 5.92 6.54 1.55 9.71 2 10.5 1.48 1-0.65 1-0.7 0-0.45-0.62 0.16-1.55-0.15-2.06-0.7-0.52-0.55-1.28-0.83-1.69-0.62-0.41 0.2-1.17 0.08-1.69-0.28-0.51-0.36-2.29-1.07-3.93-1.58-1.65-0.51-5.2-2.11-7.88-3.55-2.68-1.44-5.65-3.34-6.59-4.23-0.94-0.89-2.23-2.97-2.86-4.61-0.72-1.88-1.37-7.35-1.73-14.63-0.33-6.39-0.65-11.12-0.71-10.5zm151.39 21.37c-3.51 2.64-6.63 4.65-6.94 4.47-0.31-0.19-0.56 0-0.56 0.41 0 0.41-0.34 0.58-0.75 0.38-0.41-0.21-0.75-0.04-0.75 0.37 0 0.41-0.42 0.5-0.93 0.19-0.55-0.34-0.72-0.26-0.41 0.19 0.29 0.42-1.42 1.73-3.93 3-2.44 1.23-4.28 2.33-4.09 2.43 0.2 0.11 3.14-1.24 6.55-2.99 3.4-1.75 8.85-5.21 12.1-7.69 3.26-2.48 6.03-4.76 6.16-5.07 0.14-0.31 0.17-0.55 0.09-0.53-0.09 0.02-3.03 2.2-6.54 4.84zm-115.31 21.36c0.72 0.42 3.25 0.93 5.62 1.12 2.37 0.2 6.51 0.58 9.19 0.86 2.68 0.27 4.71 0.31 4.5 0.09-0.21-0.23-2.23-0.63-4.5-0.89-2.27-0.27-4.97-0.6-6-0.74-1.03-0.14-3.73-0.47-6-0.73-2.99-0.35-3.76-0.27-2.81 0.29z"/>
		</g>
	</g>
</svg>